HIERARCHY
ROOT Hips
{
	OFFSET 0.00 0.00 0.00
	CHANNELS 6 Xposition Yposition Zposition Xrotation Yrotation Zrotation
	JOINT Spine
	{
		OFFSET 0.00000 1.61617 2.42426
		CHANNELS 3 Xrotation Yrotation Zrotation
		JOINT Spine1
		{
			OFFSET 0.00000 0.56129 3.18324
			CHANNELS 3 Xrotation Yrotation Zrotation
			JOINT Spine2
			{
				OFFSET 0.00000 0.28172 3.22005
				CHANNELS 3 Xrotation Yrotation Zrotation
				JOINT Spine3
				{
					OFFSET 0.00000 0.00000 3.23235
					CHANNELS 3 Xrotation Yrotation Zrotation
					JOINT Neck
					{
						OFFSET 0.00000 -1.21212 8.48491
						CHANNELS 3 Xrotation Yrotation Zrotation
						JOINT Head
						{
							OFFSET 0.00000 -0.77177 4.37696
							CHANNELS 3 Xrotation Yrotation Zrotation
							End Site
							{
								OFFSET 0.00000 0.00001 5.23236
							}
						}
					}
					JOINT RightShoulder
					{
						OFFSET -1.05492 -1.75819 5.69655
						CHANNELS 3 Xrotation Yrotation Zrotation
						JOINT RightArm
						{
							OFFSET -5.23942 0.00000 0.00000
							CHANNELS 3 Xrotation Yrotation Zrotation
							JOINT RightForeArm
							{
								OFFSET -10.59715 0.00000 0.00000
								CHANNELS 3 Xrotation Yrotation Zrotation
								JOINT RightHand
								{
									OFFSET -8.61218 0.00000 0.00000
									CHANNELS 3 Xrotation Yrotation Zrotation
									JOINT RightHandEnd
									{
										OFFSET -2.51134 0.00000 0.00000
										CHANNELS 3 Xrotation Yrotation Zrotation
										End Site
										{
											OFFSET -2.51134 0.00000 0.00000
										}
									}
									JOINT RightHandThumb1
									{
										OFFSET -1.00454 -1.67423 -0.66969
										CHANNELS 3 Yrotation Xrotation Zrotation
										End Site
										{
											OFFSET -2.42577 -0.64998 0.00000
										}
									}
								}
							}
						}
					}
					JOINT LeftShoulder
					{
						OFFSET 1.05492 -1.75819 5.69655
						CHANNELS 3 Xrotation Yrotation Zrotation
						JOINT LeftArm
						{
							OFFSET 5.23942 0.00000 0.00000
							CHANNELS 3 Xrotation Yrotation Zrotation
							JOINT LeftForeArm
							{
								OFFSET 10.59715 0.00000 0.00000
								CHANNELS 3 Xrotation Yrotation Zrotation
								JOINT LeftHand
								{
									OFFSET 8.61218 0.00000 0.00000
									CHANNELS 3 Xrotation Yrotation Zrotation
									JOINT LeftHandEnd
									{
										OFFSET 2.51134 0.00000 0.00000
										CHANNELS 3 Xrotation Yrotation Zrotation
										End Site
										{
											OFFSET 2.51134 0.00000 0.00000
										}
									}
									JOINT LeftHandThumb1
									{
										OFFSET 1.00454 -1.67423 -0.66969
										CHANNELS 3 Yrotation Xrotation Zrotation
										End Site
										{
											OFFSET 2.42577 -0.64998 0.00000
										}
									}
								}
							}
						}
					}
				}
			}
		}
	}
	JOINT RightUpLeg
	{
		OFFSET -3.12959 0.00000 -0.91426
		CHANNELS 3 Xrotation Yrotation Zrotation
		JOINT RightLeg
		{
			OFFSET 0.00001 0.00000 -15.50916
			CHANNELS 3 Xrotation Yrotation Zrotation
			JOINT RightFoot
			{
				OFFSET 0.00000 0.00000 -13.57731
				CHANNELS 3 Xrotation Yrotation Zrotation
				JOINT RightToeBase
				{
					OFFSET 0.00000 -5.09667 -1.85504
					CHANNELS 3 Xrotation Yrotation Zrotation
					End Site
					{
						OFFSET 0.00000 -2.53180 -0.00000
					}
				}
			}
		}
	}
	JOINT LeftUpLeg
	{
		OFFSET 3.12959 0.00000 -0.91426
		CHANNELS 3 Xrotation Yrotation Zrotation
		JOINT LeftLeg
		{
			OFFSET 0.00001 0.00000 -15.50916
			CHANNELS 3 Xrotation Yrotation Zrotation
			JOINT LeftFoot
			{
				OFFSET 0.00000 0.00000 -13.57731
				CHANNELS 3 Xrotation Yrotation Zrotation
				JOINT LeftToeBase
				{
					OFFSET 0.00000 -5.09667 -1.85504
					CHANNELS 3 Xrotation Yrotation Zrotation
					End Site
					{
						OFFSET 0.00000 -2.53180 -0.00000
					}
				}
			}
		}
	}
}
MOTION
Frames: 10
Frame Time: 0.008342
 21.3287 -43.5966 32.7824 -0.0210 1.2847 -91.2601 -0.0383 0.5972 0.8829 -0.0743 -0.6428 0.0291 1.4202 1.1478 0.0975 0.1876 0.0350 -0.3742 2.0579 1.0199 -2.5003 -1.5311 -0.2059 -4.3930 1.4917 19.8554 -2.6687 3.7064 -13.5484 6.0188 -0.0000 -0.0000 -1.4688 2.5437 11.9665 -7.3210 -0.0000 0.0000 -0.0000 -0.0000 -0.0000 -0.0000 -2.0186 -16.6694 1.0971 -3.0243 14.6979 8.8700 -0.0000 -0.0000 -10.9372 2.4699 -5.4879 4.4978 0.0000 0.0000 -0.0000 0.0000 -0.0000 -0.0000 5.7387 0.3652 -15.1221 -1.7465 0.0000 -0.0000 -5.4372 -1.8396 -12.9617 -2.1421 0.0000 -0.0000 2.1128 -2.8338 19.4587 3.4554 0.0000 0.0000 -2.6196 2.1897 1.5776 -0.0776 0.0000 -0.0000
 21.3323 -43.5976 32.7825 -0.0199 1.3000 -91.2524 -0.0267 0.5939 0.8814 -0.0693 -0.6427 0.0287 1.4417 1.1479 0.0958 0.1917 0.0364 -0.3761 2.0451 1.0234 -2.4891 -1.5606 -0.2119 -4.3918 1.4983 19.8852 -2.6580 3.7074 -13.5721 5.9997 -0.0000 -0.0000 -1.4710 2.5432 11.9484 -7.3257 0.0000 -0.0000 0.0000 -0.0000 -0.0000 -0.0000 -1.9832 -16.6983 1.1025 -3.0262 14.7409 8.8549 -0.0000 -0.0000 -10.9222 2.4669 -5.4503 4.5150 0.0000 -0.0000 -0.0000 0.0000 -0.0000 -0.0000 5.7357 0.3680 -15.1496 -1.7210 0.0000 -0.0000 -5.4397 -1.8368 -12.9453 -2.1397 0.0000 -0.0000 2.1040 -2.8378 19.4148 3.4957 0.0000 0.0000 -2.6407 2.1859 1.6083 -0.2984 0.0000 -0.0000
 21.3370 -43.5988 32.7826 -0.0179 1.3223 -91.2439 -0.0060 0.5887 0.8793 -0.0619 -0.6416 0.0285 1.4633 1.1469 0.0958 0.1949 0.0383 -0.3777 2.0322 1.0283 -2.4752 -1.5888 -0.2200 -4.3889 1.5119 19.9207 -2.6496 3.7094 -13.5988 5.9827 -0.0000 -0.0000 -1.4791 2.5418 11.9318 -7.3268 0.0000 0.0000 0.0000 -0.0000 -0.0000 -0.0000 -1.9420 -16.7344 1.1057 -3.0268 14.7956 8.8353 -0.0000 -0.0000 -10.9023 2.4661 -5.4034 4.5326 0.0000 -0.0000 -0.0000 0.0000 0.0000 0.0000 5.7321 0.3718 -15.1891 -1.6835 0.0000 -0.0000 -5.4439 -1.8344 -12.9183 -2.1376 0.0000 -0.0000 2.0939 -2.8439 19.3574 3.5512 0.0000 0.0000 -2.6696 2.1814 1.6496 -0.5810 0.0000 -0.0000
 21.3428 -43.6004 32.7829 -0.0152 1.3488 -91.2357 0.0221 0.5819 0.8767 -0.0505 -0.6404 0.0282 1.4806 1.1457 0.0982 0.1971 0.0407 -0.3788 2.0206 1.0343 -2.4588 -1.6128 -0.2302 -4.3841 1.5295 19.9612 -2.6395 3.7134 -13.6292 5.9637 -0.0000 -0.0000 -1.4900 2.5420 11.9199 -7.3269 0.0000 -0.0000 0.0000 0.0000 -0.0000 -0.0000 -1.8978 -16.7758 1.1059 -3.0276 14.8602 8.8131 -0.0000 -0.0000 -10.8790 2.4694 -5.3492 4.5475 -0.0000 -0.0000 0.0000 0.0000 -0.0000 -0.0000 5.7237 0.3772 -15.2408 -1.6313 0.0000 -0.0000 -5.4510 -1.8319 -12.8792 -2.1348 0.0000 -0.0000 2.0791 -2.8521 19.2861 3.6235 0.0000 0.0000 -2.7065 2.1759 1.7029 -0.9193 0.0000 -0.0000
 21.3495 -43.6023 32.7833 -0.0118 1.3788 -91.2287 0.0569 0.5738 0.8730 -0.0345 -0.6391 0.0282 1.4925 1.1438 0.1043 0.1963 0.0425 -0.3788 2.0130 1.0421 -2.4399 -1.6276 -0.2422 -4.3774 1.5492 20.0062 -2.6263 3.7185 -13.6621 5.9406 -0.0000 -0.0000 -1.5003 2.5448 11.9139 -7.3292 0.0000 0.0000 0.0000 0.0000 0.0000 -0.0000 -1.8537 -16.8201 1.1018 -3.0271 14.9325 8.7880 -0.0000 -0.0000 -10.8540 2.4765 -5.2916 4.5619 -0.0000 -0.0000 0.0000 0.0000 0.0000 0.0000 5.7095 0.3842 -15.3040 -1.5635 0.0000 -0.0000 -5.4616 -1.8293 -12.8276 -2.1314 0.0000 -0.0000 2.0592 -2.8627 19.2024 3.7123 0.0000 0.0000 -2.7512 2.1703 1.7675 -1.3043 0.0000 -0.0000
 21.3569 -43.6045 32.7839 -0.0074 1.4112 -91.2240 0.0991 0.5642 0.8696 -0.0158 -0.6377 0.0283 1.4955 1.1412 0.1138 0.1931 0.0447 -0.3786 2.0109 1.0503 -2.4193 -1.6291 -0.2544 -4.3677 1.5677 20.0540 -2.6075 3.7250 -13.6978 5.9131 -0.0000 -0.0000 -1.5091 2.5508 11.9157 -7.3330 0.0000 0.0000 0.0000 0.0000 -0.0000 0.0000 -1.8130 -16.8661 1.0930 -3.0276 15.0101 8.7631 -0.0000 -0.0000 -10.8291 2.4880 -5.2352 4.5708 -0.0000 0.0000 0.0000 0.0000 0.0000 0.0000 5.6891 0.3926 -15.3811 -1.4807 0.0000 -0.0000 -5.4758 -1.8274 -12.7596 -2.1274 0.0000 -0.0000 2.0348 -2.8755 19.1079 3.8153 0.0000 0.0000 -2.8025 2.1647 1.8432 -1.7226 0.0000 -0.0000
 21.3649 -43.6070 32.7846 -0.0017 1.4414 -91.2228 0.1450 0.5524 0.8666 0.0042 -0.6354 0.0288 1.4887 1.1374 0.1267 0.1868 0.0472 -0.3787 2.0163 1.0580 -2.3972 -1.6140 -0.2657 -4.3548 1.5807 20.1028 -2.5797 3.7327 -13.7352 5.8785 -0.0000 -0.0000 -1.5123 2.5607 11.9265 -7.3421 -0.0000 0.0000 -0.0000 0.0000 -0.0000 0.0000 -1.7796 -16.9107 1.0801 -3.0271 15.0883 8.7389 -0.0000 -0.0000 -10.8070 2.5006 -5.1831 4.5771 -0.0000 0.0000 0.0000 -0.0000 -0.0000 0.0000 5.6579 0.4021 -15.4722 -1.3828 0.0000 -0.0000 -5.4938 -1.8261 -12.6742 -2.1224 0.0000 -0.0000 2.0019 -2.8907 19.0050 3.9312 0.0000 0.0000 -2.8595 2.1594 1.9288 -2.1583 0.0000 -0.0000
 21.3733 -43.6097 32.7856 0.0049 1.4624 -91.2257 0.1859 0.5401 0.8632 0.0270 -0.6342 0.0294 1.4706 1.1339 0.1434 0.1774 0.0489 -0.3775 2.0296 1.0653 -2.3747 -1.5799 -0.2745 -4.3394 1.5895 20.1495 -2.5518 3.7390 -13.7709 5.8495 -0.0000 -0.0000 -1.5156 2.5739 11.9448 -7.3524 -0.0000 0.0000 -0.0000 -0.0000 -0.0000 -0.0000 -1.7580 -16.9497 1.0621 -3.0282 15.1626 8.7172 -0.0000 -0.0000 -10.7905 2.5154 -5.1412 4.5800 0.0000 -0.0000 -0.0000 0.0000 0.0000 -0.0000 5.6090 0.4128 -15.5737 -1.2703 0.0000 -0.0000 -5.5162 -1.8245 -12.5741 -2.1153 0.0000 -0.0000 1.9538 -2.9081 18.8953 4.0589 0.0000 0.0000 -2.9208 2.1548 2.0235 -2.5941 0.0000 -0.0000
 21.3817 -43.6127 32.7868 0.0125 1.4740 -91.2331 0.2218 0.5270 0.8602 0.0507 -0.6339 0.0301 1.4407 1.1304 0.1627 0.1651 0.0505 -0.3757 2.0519 1.0717 -2.3532 -1.5255 -0.2802 -4.3199 1.5909 20.1932 -2.5212 3.7429 -13.8053 5.8245 -0.0000 -0.0000 -1.5149 2.5909 11.9711 -7.3675 0.0000 -0.0000 0.0000 0.0000 -0.0000 -0.0000 -1.7498 -16.9816 1.0401 -3.0297 15.2292 8.6998 -0.0000 -0.0000 -10.7813 2.5292 -5.1112 4.5781 0.0000 -0.0000 -0.0000 0.0000 -0.0000 -0.0000 5.5447 0.4242 -15.6838 -1.1468 0.0000 -0.0000 -5.5422 -1.8230 -12.4607 -2.1060 0.0000 -0.0000 1.8934 -2.9273 18.7827 4.1936 0.0000 0.0000 -2.9845 2.1514 2.1246 -3.0132 0.0000 -0.0000
 21.3890 -43.6159 32.7881 0.0196 1.4868 -91.2454 0.2614 0.5150 0.8574 0.0742 -0.6339 0.0304 1.3997 1.1271 0.1846 0.1499 0.0513 -0.3735 2.0849 1.0759 -2.3321 -1.4490 -0.2824 -4.2977 1.5827 20.2347 -2.4862 3.7465 -13.8386 5.8047 -0.0000 -0.0000 -1.5098 2.6079 12.0001 -7.3843 0.0000 0.0000 0.0000 -0.0000 -0.0000 -0.0000 -1.7541 -17.0074 1.0164 -3.0341 15.2878 8.6871 -0.0000 -0.0000 -10.7812 2.5392 -5.0945 4.5742 -0.0000 -0.0000 -0.0000 0.0000 0.0000 0.0000 5.4819 0.4373 -15.7989 -1.0201 0.0000 -0.0000 -5.5707 -1.8226 -12.3376 -2.0945 0.0000 -0.0000 1.8381 -2.9450 18.6747 4.3253 0.0000 0.0000 -3.0464 2.1509 2.2256 -3.4000 0.0000 -0.0000
